<mxfile host="65bd71144e">
    <diagram id="4ZSlqq9PTy-f_bh8gYAk" name="Page-1">
        <mxGraphModel dx="413" dy="659" grid="1" gridSize="10" guides="1" tooltips="1" connect="1" arrows="1" fold="1" page="1" pageScale="1" pageWidth="850" pageHeight="1100" math="0" shadow="0">
            <root>
                <mxCell id="0"/>
                <mxCell id="1" parent="0"/>
                <mxCell id="66" value="" style="group" vertex="1" connectable="0" parent="1">
                    <mxGeometry x="150" y="390" width="670" height="920" as="geometry"/>
                </mxCell>
                <mxCell id="64" value="" style="rounded=1;whiteSpace=wrap;html=1;absoluteArcSize=1;arcSize=14;strokeWidth=2;" parent="66" vertex="1">
                    <mxGeometry width="670" height="920" as="geometry"/>
                </mxCell>
                <mxCell id="13" style="edgeStyle=none;html=1;entryX=0.5;entryY=0;entryDx=0;entryDy=0;flowAnimation=1;" parent="66" source="3" target="5" edge="1">
                    <mxGeometry relative="1" as="geometry">
                        <mxPoint x="275.5" y="50" as="targetPoint"/>
                    </mxGeometry>
                </mxCell>
                <mxCell id="3" value="Start" style="strokeWidth=2;html=1;shape=mxgraph.flowchart.terminator;whiteSpace=wrap;" parent="66" vertex="1">
                    <mxGeometry x="250" y="20" width="100" height="60" as="geometry"/>
                </mxCell>
                <mxCell id="8" value="" style="edgeStyle=none;html=1;flowAnimation=1;" parent="66" source="5" target="7" edge="1">
                    <mxGeometry relative="1" as="geometry"/>
                </mxCell>
                <mxCell id="5" value="1. Load sample real images" style="rounded=1;whiteSpace=wrap;html=1;arcSize=14;strokeWidth=2;resizeWidth=0;" parent="66" vertex="1">
                    <mxGeometry x="210" y="140" width="180" height="60" as="geometry"/>
                </mxCell>
                <mxCell id="10" value="" style="edgeStyle=none;html=1;flowAnimation=1;" parent="66" source="7" target="9" edge="1">
                    <mxGeometry relative="1" as="geometry"/>
                </mxCell>
                <mxCell id="15" value="" style="edgeStyle=none;html=1;flowAnimation=1;" parent="66" edge="1">
                    <mxGeometry relative="1" as="geometry">
                        <mxPoint x="215" y="280" as="sourcePoint"/>
                        <mxPoint x="135.5" y="280" as="targetPoint"/>
                    </mxGeometry>
                </mxCell>
                <mxCell id="7" value="2. Define a new CNN for Discriminator" style="whiteSpace=wrap;html=1;rounded=1;arcSize=14;strokeWidth=2;resizeWidth=0;" parent="66" vertex="1">
                    <mxGeometry x="210" y="260" width="180" height="60" as="geometry"/>
                </mxCell>
                <mxCell id="12" value="" style="edgeStyle=none;html=1;flowAnimation=1;" parent="66" source="9" target="11" edge="1">
                    <mxGeometry relative="1" as="geometry"/>
                </mxCell>
                <mxCell id="20" value="" style="edgeStyle=none;html=1;flowAnimation=1;" parent="66" edge="1">
                    <mxGeometry relative="1" as="geometry">
                        <mxPoint x="390" y="410.5" as="sourcePoint"/>
                        <mxPoint x="470" y="410.5" as="targetPoint"/>
                    </mxGeometry>
                </mxCell>
                <mxCell id="9" value="3. Load and prepare cifar trg set for real images&amp;nbsp;&lt;div&gt;(64 x 32 x 32 x 3)&lt;/div&gt;" style="whiteSpace=wrap;html=1;rounded=1;arcSize=14;strokeWidth=2;resizeWidth=0;" parent="66" vertex="1">
                    <mxGeometry x="210" y="390" width="180" height="60" as="geometry"/>
                </mxCell>
                <mxCell id="56" style="edgeStyle=orthogonalEdgeStyle;html=1;exitX=1;exitY=0.25;exitDx=0;exitDy=0;entryX=0.37;entryY=1.008;entryDx=0;entryDy=0;entryPerimeter=0;flowAnimation=1;" parent="66" source="11" target="54" edge="1">
                    <mxGeometry relative="1" as="geometry">
                        <mxPoint x="500" y="560" as="targetPoint"/>
                    </mxGeometry>
                </mxCell>
                <mxCell id="61" value="" style="edgeStyle=none;html=1;flowAnimation=1;" parent="66" source="11" target="60" edge="1">
                    <mxGeometry relative="1" as="geometry"/>
                </mxCell>
                <mxCell id="11" value="4. Generate random data to train discriminator on fake data&amp;nbsp;&lt;div&gt;(64 x 32 x 32 x 3)&lt;/div&gt;" style="whiteSpace=wrap;html=1;rounded=1;arcSize=14;strokeWidth=2;resizeWidth=0;" parent="66" vertex="1">
                    <mxGeometry x="210" y="540" width="180" height="60" as="geometry"/>
                </mxCell>
                <mxCell id="24" style="edgeStyle=none;html=1;entryX=0;entryY=0.5;entryDx=0;entryDy=0;flowAnimation=1;" parent="66" edge="1">
                    <mxGeometry relative="1" as="geometry">
                        <mxPoint x="134.5" y="299" as="sourcePoint"/>
                        <mxPoint x="214" y="299" as="targetPoint"/>
                    </mxGeometry>
                </mxCell>
                <mxCell id="14" value="2.1 Instantiate the model" style="whiteSpace=wrap;html=1;rounded=1;arcSize=14;strokeWidth=2;" parent="66" vertex="1">
                    <mxGeometry x="20" y="260" width="120" height="60" as="geometry"/>
                </mxCell>
                <mxCell id="25" style="edgeStyle=none;html=1;entryX=1;entryY=0.5;entryDx=0;entryDy=0;flowAnimation=1;" parent="66" edge="1">
                    <mxGeometry relative="1" as="geometry">
                        <mxPoint x="470" y="430.5" as="sourcePoint"/>
                        <mxPoint x="390" y="430.5" as="targetPoint"/>
                    </mxGeometry>
                </mxCell>
                <mxCell id="55" value="" style="group" parent="66" vertex="1" connectable="0">
                    <mxGeometry x="470" y="310" width="160" height="210" as="geometry"/>
                </mxCell>
                <mxCell id="54" value="" style="rounded=1;whiteSpace=wrap;html=1;absoluteArcSize=1;arcSize=14;strokeWidth=2;" parent="55" vertex="1">
                    <mxGeometry width="160" height="210" as="geometry"/>
                </mxCell>
                <mxCell id="22" value="" style="edgeStyle=none;html=1;" parent="55" source="19" target="21" edge="1">
                    <mxGeometry relative="1" as="geometry"/>
                </mxCell>
                <mxCell id="19" value="Normalize the data from [0,255] to [-1,1]" style="whiteSpace=wrap;html=1;rounded=1;arcSize=14;strokeWidth=2;" parent="55" vertex="1">
                    <mxGeometry x="20" y="30" width="120" height="60" as="geometry"/>
                </mxCell>
                <mxCell id="21" value="Load trg data in form of x and y for 64 images" style="whiteSpace=wrap;html=1;rounded=1;arcSize=14;strokeWidth=2;" parent="55" vertex="1">
                    <mxGeometry x="20" y="120" width="120" height="60" as="geometry"/>
                </mxCell>
                <mxCell id="59" style="edgeStyle=none;html=1;entryX=1.028;entryY=0.632;entryDx=0;entryDy=0;exitX=0.6;exitY=1;exitDx=0;exitDy=0;entryPerimeter=0;exitPerimeter=0;flowAnimation=1;" parent="66" source="54" target="11" edge="1">
                    <mxGeometry relative="1" as="geometry">
                        <mxPoint x="500" y="610" as="targetPoint"/>
                        <Array as="points">
                            <mxPoint x="566" y="580"/>
                        </Array>
                    </mxGeometry>
                </mxCell>
                <mxCell id="63" value="" style="edgeStyle=none;html=1;flowAnimation=1;" parent="66" source="60" target="62" edge="1">
                    <mxGeometry relative="1" as="geometry"/>
                </mxCell>
                <mxCell id="60" value="5. Train discriminator CNN on real data" style="whiteSpace=wrap;html=1;rounded=1;arcSize=14;strokeWidth=2;resizeWidth=0;" parent="66" vertex="1">
                    <mxGeometry x="210" y="680" width="180" height="60" as="geometry"/>
                </mxCell>
                <mxCell id="62" value="6. Train discriminator CNN on fake data" style="whiteSpace=wrap;html=1;rounded=1;arcSize=14;strokeWidth=2;" parent="66" vertex="1">
                    <mxGeometry x="210" y="820" width="180" height="60" as="geometry"/>
                </mxCell>
                <mxCell id="65" value="DISCRIMINATOR CNN" style="text;html=1;align=center;verticalAlign=middle;whiteSpace=wrap;rounded=0;fontStyle=1" parent="66" vertex="1">
                    <mxGeometry x="490" y="10" width="160" height="30" as="geometry"/>
                </mxCell>
            </root>
        </mxGraphModel>
    </diagram>
</mxfile>